<svg viewBox="0 0 940 620" xmlns="http://www.w3.org/2000/svg">
<defs>
<linearGradient id="gz" x1="0" y1="0" x2="0" y2="1"><stop offset="0" stop-color="#dcebf3" stop-opacity="0.55"/><stop offset="1" stop-color="#bcd6e6" stop-opacity="0.30"/></linearGradient>
<linearGradient id="gz2" x1="0" y1="0" x2="0" y2="1"><stop offset="0" stop-color="#d3e6f0" stop-opacity="0.5"/><stop offset="1" stop-color="#b4cfe1" stop-opacity="0.28"/></linearGradient>
<linearGradient id="gp" x1="0" y1="0" x2="0" y2="1"><stop offset="0" stop-color="#e6f1f7" stop-opacity="0.6"/><stop offset="1" stop-color="#cfe3ee" stop-opacity="0.35"/></linearGradient>
<linearGradient id="scr" x1="0" y1="0" x2="0" y2="1"><stop offset="0" stop-color="#dff3fb"/><stop offset="1" stop-color="#a9d8ee"/></linearGradient>
</defs>
<rect x="0" y="0" width="940" height="620" fill="#f4f7fb"/>
<polygon points="530.0,175.0 470.0,205.0 470.0,210.0 530.0,180.0" fill="#e4e8ef" stroke="#dfe4ec" stroke-width="0.8" stroke-linejoin="round" opacity="1.0"/><polygon points="410.0,175.0 470.0,205.0 470.0,210.0 410.0,180.0" fill="#d9dee7" stroke="#dfe4ec" stroke-width="0.8" stroke-linejoin="round" opacity="1.0"/><polygon points="470.0,145.0 530.0,175.0 470.0,205.0 410.0,175.0" fill="#eef1f6" stroke="#dfe4ec" stroke-width="0.8" stroke-linejoin="round" opacity="1.0"/><polygon points="470.0,205.0 410.0,235.0 410.0,240.0 470.0,210.0" fill="#e4e8ef" stroke="#dfe4ec" stroke-width="0.8" stroke-linejoin="round" opacity="1.0"/><polygon points="350.0,205.0 410.0,235.0 410.0,240.0 350.0,210.0" fill="#d9dee7" stroke="#dfe4ec" stroke-width="0.8" stroke-linejoin="round" opacity="1.0"/><polygon points="410.0,175.0 470.0,205.0 410.0,235.0 350.0,205.0" fill="#eef1f6" stroke="#dfe4ec" stroke-width="0.8" stroke-linejoin="round" opacity="1.0"/><polygon points="410.0,235.0 350.0,265.0 350.0,270.0 410.0,240.0" fill="#e4e8ef" stroke="#dfe4ec" stroke-width="0.8" stroke-linejoin="round" opacity="1.0"/><polygon points="290.0,235.0 350.0,265.0 350.0,270.0 290.0,240.0" fill="#d9dee7" stroke="#dfe4ec" stroke-width="0.8" stroke-linejoin="round" opacity="1.0"/><polygon points="350.0,205.0 410.0,235.0 350.0,265.0 290.0,235.0" fill="#eef1f6" stroke="#dfe4ec" stroke-width="0.8" stroke-linejoin="round" opacity="1.0"/><polygon points="350.0,265.0 290.0,295.0 290.0,300.0 350.0,270.0" fill="#e4e8ef" stroke="#dfe4ec" stroke-width="0.8" stroke-linejoin="round" opacity="1.0"/><polygon points="230.0,265.0 290.0,295.0 290.0,300.0 230.0,270.0" fill="#d9dee7" stroke="#dfe4ec" stroke-width="0.8" stroke-linejoin="round" opacity="1.0"/><polygon points="290.0,235.0 350.0,265.0 290.0,295.0 230.0,265.0" fill="#eef1f6" stroke="#dfe4ec" stroke-width="0.8" stroke-linejoin="round" opacity="1.0"/><polygon points="590.0,205.0 530.0,235.0 530.0,240.0 590.0,210.0" fill="#e4e8ef" stroke="#dfe4ec" stroke-width="0.8" stroke-linejoin="round" opacity="1.0"/><polygon points="470.0,205.0 530.0,235.0 530.0,240.0 470.0,210.0" fill="#d9dee7" stroke="#dfe4ec" stroke-width="0.8" stroke-linejoin="round" opacity="1.0"/><polygon points="530.0,175.0 590.0,205.0 530.0,235.0 470.0,205.0" fill="#eef1f6" stroke="#dfe4ec" stroke-width="0.8" stroke-linejoin="round" opacity="1.0"/><polygon points="530.0,235.0 470.0,265.0 470.0,270.0 530.0,240.0" fill="#e4e8ef" stroke="#dfe4ec" stroke-width="0.8" stroke-linejoin="round" opacity="1.0"/><polygon points="410.0,235.0 470.0,265.0 470.0,270.0 410.0,240.0" fill="#d9dee7" stroke="#dfe4ec" stroke-width="0.8" stroke-linejoin="round" opacity="1.0"/><polygon points="470.0,205.0 530.0,235.0 470.0,265.0 410.0,235.0" fill="#eef1f6" stroke="#dfe4ec" stroke-width="0.8" stroke-linejoin="round" opacity="1.0"/><polygon points="470.0,265.0 410.0,295.0 410.0,300.0 470.0,270.0" fill="#e4e8ef" stroke="#dfe4ec" stroke-width="0.8" stroke-linejoin="round" opacity="1.0"/><polygon points="350.0,265.0 410.0,295.0 410.0,300.0 350.0,270.0" fill="#d9dee7" stroke="#dfe4ec" stroke-width="0.8" stroke-linejoin="round" opacity="1.0"/><polygon points="410.0,235.0 470.0,265.0 410.0,295.0 350.0,265.0" fill="#eef1f6" stroke="#dfe4ec" stroke-width="0.8" stroke-linejoin="round" opacity="1.0"/><polygon points="410.0,295.0 350.0,325.0 350.0,330.0 410.0,300.0" fill="#e4e8ef" stroke="#dfe4ec" stroke-width="0.8" stroke-linejoin="round" opacity="1.0"/><polygon points="290.0,295.0 350.0,325.0 350.0,330.0 290.0,300.0" fill="#d9dee7" stroke="#dfe4ec" stroke-width="0.8" stroke-linejoin="round" opacity="1.0"/><polygon points="350.0,265.0 410.0,295.0 350.0,325.0 290.0,295.0" fill="#eef1f6" stroke="#dfe4ec" stroke-width="0.8" stroke-linejoin="round" opacity="1.0"/><polygon points="650.0,235.0 590.0,265.0 590.0,270.0 650.0,240.0" fill="#e4e8ef" stroke="#dfe4ec" stroke-width="0.8" stroke-linejoin="round" opacity="1.0"/><polygon points="530.0,235.0 590.0,265.0 590.0,270.0 530.0,240.0" fill="#d9dee7" stroke="#dfe4ec" stroke-width="0.8" stroke-linejoin="round" opacity="1.0"/><polygon points="590.0,205.0 650.0,235.0 590.0,265.0 530.0,235.0" fill="#eef1f6" stroke="#dfe4ec" stroke-width="0.8" stroke-linejoin="round" opacity="1.0"/><polygon points="590.0,265.0 530.0,295.0 530.0,300.0 590.0,270.0" fill="#e4e8ef" stroke="#dfe4ec" stroke-width="0.8" stroke-linejoin="round" opacity="1.0"/><polygon points="470.0,265.0 530.0,295.0 530.0,300.0 470.0,270.0" fill="#d9dee7" stroke="#dfe4ec" stroke-width="0.8" stroke-linejoin="round" opacity="1.0"/><polygon points="530.0,235.0 590.0,265.0 530.0,295.0 470.0,265.0" fill="#eef1f6" stroke="#dfe4ec" stroke-width="0.8" stroke-linejoin="round" opacity="1.0"/><polygon points="530.0,295.0 470.0,325.0 470.0,330.0 530.0,300.0" fill="#e4e8ef" stroke="#dfe4ec" stroke-width="0.8" stroke-linejoin="round" opacity="1.0"/><polygon points="410.0,295.0 470.0,325.0 470.0,330.0 410.0,300.0" fill="#d9dee7" stroke="#dfe4ec" stroke-width="0.8" stroke-linejoin="round" opacity="1.0"/><polygon points="470.0,265.0 530.0,295.0 470.0,325.0 410.0,295.0" fill="#eef1f6" stroke="#dfe4ec" stroke-width="0.8" stroke-linejoin="round" opacity="1.0"/><polygon points="470.0,325.0 410.0,355.0 410.0,360.0 470.0,330.0" fill="#e4e8ef" stroke="#dfe4ec" stroke-width="0.8" stroke-linejoin="round" opacity="1.0"/><polygon points="350.0,325.0 410.0,355.0 410.0,360.0 350.0,330.0" fill="#d9dee7" stroke="#dfe4ec" stroke-width="0.8" stroke-linejoin="round" opacity="1.0"/><polygon points="410.0,295.0 470.0,325.0 410.0,355.0 350.0,325.0" fill="#eef1f6" stroke="#dfe4ec" stroke-width="0.8" stroke-linejoin="round" opacity="1.0"/><polygon points="710.0,265.0 650.0,295.0 650.0,300.0 710.0,270.0" fill="#e4e8ef" stroke="#dfe4ec" stroke-width="0.8" stroke-linejoin="round" opacity="1.0"/><polygon points="590.0,265.0 650.0,295.0 650.0,300.0 590.0,270.0" fill="#d9dee7" stroke="#dfe4ec" stroke-width="0.8" stroke-linejoin="round" opacity="1.0"/><polygon points="650.0,235.0 710.0,265.0 650.0,295.0 590.0,265.0" fill="#eef1f6" stroke="#dfe4ec" stroke-width="0.8" stroke-linejoin="round" opacity="1.0"/><polygon points="650.0,295.0 590.0,325.0 590.0,330.0 650.0,300.0" fill="#e4e8ef" stroke="#dfe4ec" stroke-width="0.8" stroke-linejoin="round" opacity="1.0"/><polygon points="530.0,295.0 590.0,325.0 590.0,330.0 530.0,300.0" fill="#d9dee7" stroke="#dfe4ec" stroke-width="0.8" stroke-linejoin="round" opacity="1.0"/><polygon points="590.0,265.0 650.0,295.0 590.0,325.0 530.0,295.0" fill="#eef1f6" stroke="#dfe4ec" stroke-width="0.8" stroke-linejoin="round" opacity="1.0"/><polygon points="590.0,325.0 530.0,355.0 530.0,360.0 590.0,330.0" fill="#e4e8ef" stroke="#dfe4ec" stroke-width="0.8" stroke-linejoin="round" opacity="1.0"/><polygon points="470.0,325.0 530.0,355.0 530.0,360.0 470.0,330.0" fill="#d9dee7" stroke="#dfe4ec" stroke-width="0.8" stroke-linejoin="round" opacity="1.0"/><polygon points="530.0,295.0 590.0,325.0 530.0,355.0 470.0,325.0" fill="#eef1f6" stroke="#dfe4ec" stroke-width="0.8" stroke-linejoin="round" opacity="1.0"/><polygon points="530.0,355.0 470.0,385.0 470.0,390.0 530.0,360.0" fill="#e4e8ef" stroke="#dfe4ec" stroke-width="0.8" stroke-linejoin="round" opacity="1.0"/><polygon points="410.0,355.0 470.0,385.0 470.0,390.0 410.0,360.0" fill="#d9dee7" stroke="#dfe4ec" stroke-width="0.8" stroke-linejoin="round" opacity="1.0"/><polygon points="470.0,325.0 530.0,355.0 470.0,385.0 410.0,355.0" fill="#eef1f6" stroke="#dfe4ec" stroke-width="0.8" stroke-linejoin="round" opacity="1.0"/><polygon points="470.0,145.0 710.0,265.0 710.0,75.0 470.0,-45.0" fill="url(#gz)" stroke="#cdd6e0" stroke-width="1.2" stroke-linejoin="round" opacity="0.9"/><line x1="470.0" y1="145.0" x2="470.0" y2="-45.0" stroke="#f4f8fc" stroke-width="2.4" opacity="1"/><line x1="530.0" y1="175.0" x2="530.0" y2="-15.0" stroke="#f4f8fc" stroke-width="2.4" opacity="1"/><line x1="590.0" y1="205.0" x2="590.0" y2="15.0" stroke="#f4f8fc" stroke-width="2.4" opacity="1"/><line x1="650.0" y1="235.0" x2="650.0" y2="45.0" stroke="#f4f8fc" stroke-width="2.4" opacity="1"/><line x1="710.0" y1="265.0" x2="710.0" y2="75.0" stroke="#f4f8fc" stroke-width="2.4" opacity="1"/><line x1="470.0" y1="-45.0" x2="710.0" y2="75.0" stroke="#f4f8fc" stroke-width="2.6" opacity="1"/><line x1="470.0" y1="145.0" x2="710.0" y2="265.0" stroke="#e3e9f0" stroke-width="2.2" opacity="1"/><line x1="470.0" y1="40.5" x2="710.0" y2="160.5" stroke="#eef3f8" stroke-width="1.6" opacity="0.8"/><polygon points="470.0,145.0 230.0,265.0 230.0,75.0 470.0,-45.0" fill="url(#gz2)" stroke="#cdd6e0" stroke-width="1.2" stroke-linejoin="round" opacity="0.9"/><line x1="470.0" y1="145.0" x2="470.0" y2="-45.0" stroke="#eef3f8" stroke-width="2.4" opacity="1"/><line x1="410.0" y1="175.0" x2="410.0" y2="-15.0" stroke="#eef3f8" stroke-width="2.4" opacity="1"/><line x1="350.0" y1="205.0" x2="350.0" y2="15.0" stroke="#eef3f8" stroke-width="2.4" opacity="1"/><line x1="290.0" y1="235.0" x2="290.0" y2="45.0" stroke="#eef3f8" stroke-width="2.4" opacity="1"/><line x1="230.0" y1="265.0" x2="230.0" y2="75.0" stroke="#eef3f8" stroke-width="2.4" opacity="1"/><line x1="470.0" y1="-45.0" x2="230.0" y2="75.0" stroke="#f4f8fc" stroke-width="2.6" opacity="1"/><line x1="470.0" y1="145.0" x2="230.0" y2="265.0" stroke="#e3e9f0" stroke-width="2.2" opacity="1"/><line x1="470.0" y1="40.5" x2="230.0" y2="160.5" stroke="#eef3f8" stroke-width="1.6" opacity="0.8"/><polygon points="470.0,265.0 350.0,325.0 350.0,205.0 470.0,145.0" fill="url(#gp)" stroke="#cdd6e0" stroke-width="1.2" stroke-linejoin="round" opacity="0.55"/><line x1="470.0" y1="145.0" x2="350.0" y2="205.0" stroke="#dfe7ef" stroke-width="2.2" opacity="1"/><line x1="470.0" y1="265.0" x2="470.0" y2="145.0" stroke="#eaf1f7" stroke-width="1.8" opacity="0.7"/><line x1="410.0" y1="295.0" x2="410.0" y2="175.0" stroke="#eaf1f7" stroke-width="1.8" opacity="0.7"/><line x1="350.0" y1="325.0" x2="350.0" y2="205.0" stroke="#eaf1f7" stroke-width="1.8" opacity="0.7"/><polygon points="494.0,267.0 440.0,294.0 440.0,328.0 494.0,301.0" fill="#caa074" stroke="#27303b" stroke-width="1.4" stroke-linejoin="round" opacity="1.0"/><polygon points="308.0,228.0 440.0,294.0 440.0,328.0 308.0,262.0" fill="#b98e62" stroke="#27303b" stroke-width="1.4" stroke-linejoin="round" opacity="1.0"/><polygon points="362.0,201.0 494.0,267.0 440.0,294.0 308.0,228.0" fill="#d8b489" stroke="#27303b" stroke-width="1.4" stroke-linejoin="round" opacity="1.0"/><polygon points="381.8,216.5 378.2,218.3 378.2,234.3 381.8,232.5" fill="#c2c9d3" stroke="#27303b" stroke-width="1.4" stroke-linejoin="round" opacity="1.0"/><polygon points="374.6,216.5 378.2,218.3 378.2,234.3 374.6,232.5" fill="#aeb6c2" stroke="#27303b" stroke-width="1.4" stroke-linejoin="round" opacity="1.0"/><polygon points="378.2,214.7 381.8,216.5 378.2,218.3 374.6,216.5" fill="#cfd6df" stroke="#27303b" stroke-width="1.4" stroke-linejoin="round" opacity="1.0"/><polygon points="415.4,175.3 411.8,177.1 411.8,217.1 415.4,215.3" fill="#333b46" stroke="#27303b" stroke-width="1.4" stroke-linejoin="round" opacity="1.0"/><polygon points="381.8,162.1 411.8,177.1 411.8,217.1 381.8,202.1" fill="#2b323c" stroke="#27303b" stroke-width="1.4" stroke-linejoin="round" opacity="1.0"/><polygon points="385.4,160.3 415.4,175.3 411.8,177.1 381.8,162.1" fill="#39414e" stroke="#27303b" stroke-width="1.4" stroke-linejoin="round" opacity="1.0"/><polygon points="381.8,162.1 411.8,177.1 411.8,211.1 381.8,196.1" fill="url(#scr)" stroke="#222a33" stroke-width="1.0" stroke-linejoin="round" opacity="1.0"/><line x1="385.4" y1="169.9" x2="399.8" y2="177.1" stroke="#bfe3f2" stroke-width="2.0" opacity="0.85"/><line x1="385.4" y1="175.9" x2="395.0" y2="180.7" stroke="#bfe3f2" stroke-width="2.0" opacity="0.85"/><line x1="385.4" y1="181.9" x2="399.8" y2="189.1" stroke="#bfe3f2" stroke-width="2.0" opacity="0.85"/><line x1="385.4" y1="187.9" x2="395.0" y2="192.7" stroke="#bfe3f2" stroke-width="2.0" opacity="0.85"/><line x1="385.4" y1="193.9" x2="399.8" y2="201.1" stroke="#bfe3f2" stroke-width="2.0" opacity="0.85"/><polygon points="423.8,237.5 420.2,239.3 420.2,255.3 423.8,253.5" fill="#c2c9d3" stroke="#27303b" stroke-width="1.4" stroke-linejoin="round" opacity="1.0"/><polygon points="416.6,237.5 420.2,239.3 420.2,255.3 416.6,253.5" fill="#aeb6c2" stroke="#27303b" stroke-width="1.4" stroke-linejoin="round" opacity="1.0"/><polygon points="420.2,235.7 423.8,237.5 420.2,239.3 416.6,237.5" fill="#cfd6df" stroke="#27303b" stroke-width="1.4" stroke-linejoin="round" opacity="1.0"/><polygon points="457.4,196.3 453.8,198.1 453.8,238.1 457.4,236.3" fill="#333b46" stroke="#27303b" stroke-width="1.4" stroke-linejoin="round" opacity="1.0"/><polygon points="423.8,183.1 453.8,198.1 453.8,238.1 423.8,223.1" fill="#2b323c" stroke="#27303b" stroke-width="1.4" stroke-linejoin="round" opacity="1.0"/><polygon points="427.4,181.3 457.4,196.3 453.8,198.1 423.8,183.1" fill="#39414e" stroke="#27303b" stroke-width="1.4" stroke-linejoin="round" opacity="1.0"/><polygon points="423.8,183.1 453.8,198.1 453.8,232.1 423.8,217.1" fill="url(#scr)" stroke="#222a33" stroke-width="1.0" stroke-linejoin="round" opacity="1.0"/><line x1="427.4" y1="190.9" x2="441.8" y2="198.1" stroke="#bfe3f2" stroke-width="2.0" opacity="0.85"/><line x1="427.4" y1="196.9" x2="437.0" y2="201.7" stroke="#bfe3f2" stroke-width="2.0" opacity="0.85"/><line x1="427.4" y1="202.9" x2="441.8" y2="210.1" stroke="#bfe3f2" stroke-width="2.0" opacity="0.85"/><line x1="427.4" y1="208.9" x2="437.0" y2="213.7" stroke="#bfe3f2" stroke-width="2.0" opacity="0.85"/><line x1="427.4" y1="214.9" x2="441.8" y2="222.1" stroke="#bfe3f2" stroke-width="2.0" opacity="0.85"/><polygon points="359.0,232.5 419.0,262.5 412.4,273.0 352.4,243.0" fill="#eef1f5" stroke="#c4ccd6" stroke-width="1.0" stroke-linejoin="round" opacity="1.0"/><polygon points="447.2,264.6 440.0,268.2 440.0,280.2 447.2,276.6" fill="#f2e6da" stroke="#27303b" stroke-width="1.4" stroke-linejoin="round" opacity="1.0"/><polygon points="432.8,264.6 440.0,268.2 440.0,280.2 432.8,276.6" fill="#e4d3c2" stroke="#27303b" stroke-width="1.4" stroke-linejoin="round" opacity="1.0"/><polygon points="440.0,261.0 447.2,264.6 440.0,268.2 432.8,264.6" fill="#ffffff" stroke="#27303b" stroke-width="1.4" stroke-linejoin="round" opacity="1.0"/><polygon points="380.0,291.0 369.2,296.4 369.2,318.4 380.0,313.0" fill="#525b6a" stroke="#27303b" stroke-width="1.4" stroke-linejoin="round" opacity="1.0"/><polygon points="336.2,279.9 369.2,296.4 369.2,318.4 336.2,301.9" fill="#48515f" stroke="#27303b" stroke-width="1.4" stroke-linejoin="round" opacity="1.0"/><polygon points="347.0,274.5 380.0,291.0 369.2,296.4 336.2,279.9" fill="#5d6a73" stroke="#27303b" stroke-width="1.4" stroke-linejoin="round" opacity="1.0"/><polygon points="372.8,248.6 366.8,251.6 366.8,297.6 372.8,294.6" fill="#505a6b" stroke="#27303b" stroke-width="1.4" stroke-linejoin="round" opacity="1.0"/><polygon points="333.8,235.1 366.8,251.6 366.8,297.6 333.8,281.1" fill="#454e5d" stroke="#27303b" stroke-width="1.4" stroke-linejoin="round" opacity="1.0"/><polygon points="339.8,232.1 372.8,248.6 366.8,251.6 333.8,235.1" fill="#586375" stroke="#27303b" stroke-width="1.4" stroke-linejoin="round" opacity="1.0"/><polygon points="656.0,254.0 632.0,266.0 632.0,280.0 656.0,268.0" fill="#bd855b" stroke="#27303b" stroke-width="1.4" stroke-linejoin="round" opacity="1.0"/><polygon points="608.0,254.0 632.0,266.0 632.0,280.0 608.0,268.0" fill="#a9764e" stroke="#27303b" stroke-width="1.4" stroke-linejoin="round" opacity="1.0"/><polygon points="632.0,242.0 656.0,254.0 632.0,266.0 608.0,254.0" fill="#cf9568" stroke="#27303b" stroke-width="1.4" stroke-linejoin="round" opacity="1.0"/><circle cx="632.0" cy="243.0" r="26" fill="#6cb583" stroke="#2c3a30" stroke-width="1.2"/><circle cx="632.0" cy="229.0" r="18" fill="#7cc191" stroke="#2c3a30" stroke-width="1.0"/>
</svg>