<svg viewBox="0 0 940 650" xmlns="http://www.w3.org/2000/svg">
<defs>
<linearGradient id="g1" x1="0" y1="0" x2="0" y2="1"><stop offset="0" stop-color="#e3eff6" stop-opacity="0.55"/><stop offset="1" stop-color="#c2dae9" stop-opacity="0.28"/></linearGradient>
<linearGradient id="g2" x1="0" y1="0" x2="0" y2="1"><stop offset="0" stop-color="#dcebf3" stop-opacity="0.5"/><stop offset="1" stop-color="#bbd5e6" stop-opacity="0.26"/></linearGradient>
<linearGradient id="g3" x1="0" y1="0" x2="0" y2="1"><stop offset="0" stop-color="#eaf3f9" stop-opacity="0.6"/><stop offset="1" stop-color="#d3e6f0" stop-opacity="0.33"/></linearGradient>
</defs>
<rect width="940" height="650" fill="#f5f7fb"/>
<polygon points="530.0,186.0 470.0,216.0 470.0,220.0 530.0,190.0" fill="#dde1e9" stroke="#d9dee6" stroke-width="0.7" stroke-linejoin="round" opacity="1.0"/><polygon points="410.0,186.0 470.0,216.0 470.0,220.0 410.0,190.0" fill="#d4d9e2" stroke="#d9dee6" stroke-width="0.7" stroke-linejoin="round" opacity="1.0"/><polygon points="470.0,156.0 530.0,186.0 470.0,216.0 410.0,186.0" fill="#e7eaf0" stroke="#d9dee6" stroke-width="0.7" stroke-linejoin="round" opacity="1.0"/><polygon points="470.0,216.0 410.0,246.0 410.0,250.0 470.0,220.0" fill="#dde1e9" stroke="#d9dee6" stroke-width="0.7" stroke-linejoin="round" opacity="1.0"/><polygon points="350.0,216.0 410.0,246.0 410.0,250.0 350.0,220.0" fill="#d4d9e2" stroke="#d9dee6" stroke-width="0.7" stroke-linejoin="round" opacity="1.0"/><polygon points="410.0,186.0 470.0,216.0 410.0,246.0 350.0,216.0" fill="#e7eaf0" stroke="#d9dee6" stroke-width="0.7" stroke-linejoin="round" opacity="1.0"/><polygon points="410.0,246.0 350.0,276.0 350.0,280.0 410.0,250.0" fill="#dde1e9" stroke="#d9dee6" stroke-width="0.7" stroke-linejoin="round" opacity="1.0"/><polygon points="290.0,246.0 350.0,276.0 350.0,280.0 290.0,250.0" fill="#d4d9e2" stroke="#d9dee6" stroke-width="0.7" stroke-linejoin="round" opacity="1.0"/><polygon points="350.0,216.0 410.0,246.0 350.0,276.0 290.0,246.0" fill="#e7eaf0" stroke="#d9dee6" stroke-width="0.7" stroke-linejoin="round" opacity="1.0"/><polygon points="350.0,276.0 290.0,306.0 290.0,310.0 350.0,280.0" fill="#dde1e9" stroke="#d9dee6" stroke-width="0.7" stroke-linejoin="round" opacity="1.0"/><polygon points="230.0,276.0 290.0,306.0 290.0,310.0 230.0,280.0" fill="#d4d9e2" stroke="#d9dee6" stroke-width="0.7" stroke-linejoin="round" opacity="1.0"/><polygon points="290.0,246.0 350.0,276.0 290.0,306.0 230.0,276.0" fill="#e7eaf0" stroke="#d9dee6" stroke-width="0.7" stroke-linejoin="round" opacity="1.0"/><polygon points="590.0,216.0 530.0,246.0 530.0,250.0 590.0,220.0" fill="#dde1e9" stroke="#d9dee6" stroke-width="0.7" stroke-linejoin="round" opacity="1.0"/><polygon points="470.0,216.0 530.0,246.0 530.0,250.0 470.0,220.0" fill="#d4d9e2" stroke="#d9dee6" stroke-width="0.7" stroke-linejoin="round" opacity="1.0"/><polygon points="530.0,186.0 590.0,216.0 530.0,246.0 470.0,216.0" fill="#e7eaf0" stroke="#d9dee6" stroke-width="0.7" stroke-linejoin="round" opacity="1.0"/><polygon points="530.0,246.0 470.0,276.0 470.0,280.0 530.0,250.0" fill="#dde1e9" stroke="#d9dee6" stroke-width="0.7" stroke-linejoin="round" opacity="1.0"/><polygon points="410.0,246.0 470.0,276.0 470.0,280.0 410.0,250.0" fill="#d4d9e2" stroke="#d9dee6" stroke-width="0.7" stroke-linejoin="round" opacity="1.0"/><polygon points="470.0,216.0 530.0,246.0 470.0,276.0 410.0,246.0" fill="#e7eaf0" stroke="#d9dee6" stroke-width="0.7" stroke-linejoin="round" opacity="1.0"/><polygon points="470.0,276.0 410.0,306.0 410.0,310.0 470.0,280.0" fill="#dde1e9" stroke="#d9dee6" stroke-width="0.7" stroke-linejoin="round" opacity="1.0"/><polygon points="350.0,276.0 410.0,306.0 410.0,310.0 350.0,280.0" fill="#d4d9e2" stroke="#d9dee6" stroke-width="0.7" stroke-linejoin="round" opacity="1.0"/><polygon points="410.0,246.0 470.0,276.0 410.0,306.0 350.0,276.0" fill="#e7eaf0" stroke="#d9dee6" stroke-width="0.7" stroke-linejoin="round" opacity="1.0"/><polygon points="410.0,306.0 350.0,336.0 350.0,340.0 410.0,310.0" fill="#dde1e9" stroke="#d9dee6" stroke-width="0.7" stroke-linejoin="round" opacity="1.0"/><polygon points="290.0,306.0 350.0,336.0 350.0,340.0 290.0,310.0" fill="#d4d9e2" stroke="#d9dee6" stroke-width="0.7" stroke-linejoin="round" opacity="1.0"/><polygon points="350.0,276.0 410.0,306.0 350.0,336.0 290.0,306.0" fill="#e7eaf0" stroke="#d9dee6" stroke-width="0.7" stroke-linejoin="round" opacity="1.0"/><polygon points="650.0,246.0 590.0,276.0 590.0,280.0 650.0,250.0" fill="#dde1e9" stroke="#d9dee6" stroke-width="0.7" stroke-linejoin="round" opacity="1.0"/><polygon points="530.0,246.0 590.0,276.0 590.0,280.0 530.0,250.0" fill="#d4d9e2" stroke="#d9dee6" stroke-width="0.7" stroke-linejoin="round" opacity="1.0"/><polygon points="590.0,216.0 650.0,246.0 590.0,276.0 530.0,246.0" fill="#e7eaf0" stroke="#d9dee6" stroke-width="0.7" stroke-linejoin="round" opacity="1.0"/><polygon points="590.0,276.0 530.0,306.0 530.0,310.0 590.0,280.0" fill="#dde1e9" stroke="#d9dee6" stroke-width="0.7" stroke-linejoin="round" opacity="1.0"/><polygon points="470.0,276.0 530.0,306.0 530.0,310.0 470.0,280.0" fill="#d4d9e2" stroke="#d9dee6" stroke-width="0.7" stroke-linejoin="round" opacity="1.0"/><polygon points="530.0,246.0 590.0,276.0 530.0,306.0 470.0,276.0" fill="#e7eaf0" stroke="#d9dee6" stroke-width="0.7" stroke-linejoin="round" opacity="1.0"/><polygon points="530.0,306.0 470.0,336.0 470.0,340.0 530.0,310.0" fill="#dde1e9" stroke="#d9dee6" stroke-width="0.7" stroke-linejoin="round" opacity="1.0"/><polygon points="410.0,306.0 470.0,336.0 470.0,340.0 410.0,310.0" fill="#d4d9e2" stroke="#d9dee6" stroke-width="0.7" stroke-linejoin="round" opacity="1.0"/><polygon points="470.0,276.0 530.0,306.0 470.0,336.0 410.0,306.0" fill="#e7eaf0" stroke="#d9dee6" stroke-width="0.7" stroke-linejoin="round" opacity="1.0"/><polygon points="470.0,336.0 410.0,366.0 410.0,370.0 470.0,340.0" fill="#dde1e9" stroke="#d9dee6" stroke-width="0.7" stroke-linejoin="round" opacity="1.0"/><polygon points="350.0,336.0 410.0,366.0 410.0,370.0 350.0,340.0" fill="#d4d9e2" stroke="#d9dee6" stroke-width="0.7" stroke-linejoin="round" opacity="1.0"/><polygon points="410.0,306.0 470.0,336.0 410.0,366.0 350.0,336.0" fill="#e7eaf0" stroke="#d9dee6" stroke-width="0.7" stroke-linejoin="round" opacity="1.0"/><polygon points="710.0,276.0 650.0,306.0 650.0,310.0 710.0,280.0" fill="#dde1e9" stroke="#d9dee6" stroke-width="0.7" stroke-linejoin="round" opacity="1.0"/><polygon points="590.0,276.0 650.0,306.0 650.0,310.0 590.0,280.0" fill="#d4d9e2" stroke="#d9dee6" stroke-width="0.7" stroke-linejoin="round" opacity="1.0"/><polygon points="650.0,246.0 710.0,276.0 650.0,306.0 590.0,276.0" fill="#e7eaf0" stroke="#d9dee6" stroke-width="0.7" stroke-linejoin="round" opacity="1.0"/><polygon points="650.0,306.0 590.0,336.0 590.0,340.0 650.0,310.0" fill="#dde1e9" stroke="#d9dee6" stroke-width="0.7" stroke-linejoin="round" opacity="1.0"/><polygon points="530.0,306.0 590.0,336.0 590.0,340.0 530.0,310.0" fill="#d4d9e2" stroke="#d9dee6" stroke-width="0.7" stroke-linejoin="round" opacity="1.0"/><polygon points="590.0,276.0 650.0,306.0 590.0,336.0 530.0,306.0" fill="#e7eaf0" stroke="#d9dee6" stroke-width="0.7" stroke-linejoin="round" opacity="1.0"/><polygon points="590.0,336.0 530.0,366.0 530.0,370.0 590.0,340.0" fill="#dde1e9" stroke="#d9dee6" stroke-width="0.7" stroke-linejoin="round" opacity="1.0"/><polygon points="470.0,336.0 530.0,366.0 530.0,370.0 470.0,340.0" fill="#d4d9e2" stroke="#d9dee6" stroke-width="0.7" stroke-linejoin="round" opacity="1.0"/><polygon points="530.0,306.0 590.0,336.0 530.0,366.0 470.0,336.0" fill="#e7eaf0" stroke="#d9dee6" stroke-width="0.7" stroke-linejoin="round" opacity="1.0"/><polygon points="530.0,366.0 470.0,396.0 470.0,400.0 530.0,370.0" fill="#dde1e9" stroke="#d9dee6" stroke-width="0.7" stroke-linejoin="round" opacity="1.0"/><polygon points="410.0,366.0 470.0,396.0 470.0,400.0 410.0,370.0" fill="#d4d9e2" stroke="#d9dee6" stroke-width="0.7" stroke-linejoin="round" opacity="1.0"/><polygon points="470.0,336.0 530.0,366.0 470.0,396.0 410.0,366.0" fill="#e7eaf0" stroke="#d9dee6" stroke-width="0.7" stroke-linejoin="round" opacity="1.0"/><line x1="455.3" y1="180.8" x2="458.9" y2="185.0" stroke="#d6dbe3" stroke-width="1.0" opacity="0.5"/><line x1="458.8" y1="185.4" x2="462.4" y2="189.6" stroke="#d6dbe3" stroke-width="1.0" opacity="0.5"/><line x1="496.9" y1="178.6" x2="500.5" y2="182.8" stroke="#d6dbe3" stroke-width="1.0" opacity="0.5"/><line x1="430.4" y1="182.4" x2="434.0" y2="186.6" stroke="#d6dbe3" stroke-width="1.0" opacity="0.5"/><line x1="471.2" y1="173.8" x2="474.8" y2="178.0" stroke="#d6dbe3" stroke-width="1.0" opacity="0.5"/><line x1="495.2" y1="197.2" x2="498.8" y2="201.4" stroke="#d6dbe3" stroke-width="1.0" opacity="0.5"/><line x1="487.3" y1="193.5" x2="490.9" y2="197.7" stroke="#d6dbe3" stroke-width="1.0" opacity="0.5"/><line x1="433.4" y1="211.0" x2="437.0" y2="215.2" stroke="#d6dbe3" stroke-width="1.0" opacity="0.5"/><line x1="398.8" y1="228.1" x2="402.4" y2="232.3" stroke="#d6dbe3" stroke-width="1.0" opacity="0.5"/><line x1="399.5" y1="222.3" x2="403.1" y2="226.5" stroke="#d6dbe3" stroke-width="1.0" opacity="0.5"/><line x1="439.2" y1="209.7" x2="442.8" y2="213.9" stroke="#d6dbe3" stroke-width="1.0" opacity="0.5"/><line x1="418.0" y1="224.4" x2="421.6" y2="228.6" stroke="#d6dbe3" stroke-width="1.0" opacity="0.5"/><line x1="423.0" y1="200.0" x2="426.6" y2="204.2" stroke="#d6dbe3" stroke-width="1.0" opacity="0.5"/><line x1="428.9" y1="224.1" x2="432.5" y2="228.3" stroke="#d6dbe3" stroke-width="1.0" opacity="0.5"/><line x1="342.3" y1="260.3" x2="345.9" y2="264.5" stroke="#d6dbe3" stroke-width="1.0" opacity="0.5"/><line x1="340.1" y1="261.2" x2="343.7" y2="265.4" stroke="#d6dbe3" stroke-width="1.0" opacity="0.5"/><line x1="330.5" y1="250.7" x2="334.1" y2="254.9" stroke="#d6dbe3" stroke-width="1.0" opacity="0.5"/><line x1="326.4" y1="255.1" x2="330.0" y2="259.3" stroke="#d6dbe3" stroke-width="1.0" opacity="0.5"/><line x1="387.5" y1="245.4" x2="391.1" y2="249.6" stroke="#d6dbe3" stroke-width="1.0" opacity="0.5"/><line x1="346.1" y1="230.5" x2="349.7" y2="234.7" stroke="#d6dbe3" stroke-width="1.0" opacity="0.5"/><line x1="375.4" y1="255.6" x2="379.0" y2="259.8" stroke="#d6dbe3" stroke-width="1.0" opacity="0.5"/><line x1="305.6" y1="274.3" x2="309.2" y2="278.5" stroke="#d6dbe3" stroke-width="1.0" opacity="0.5"/><line x1="295.8" y1="273.4" x2="299.4" y2="277.6" stroke="#d6dbe3" stroke-width="1.0" opacity="0.5"/><line x1="278.8" y1="274.5" x2="282.4" y2="278.7" stroke="#d6dbe3" stroke-width="1.0" opacity="0.5"/><line x1="274.6" y1="287.7" x2="278.2" y2="291.9" stroke="#d6dbe3" stroke-width="1.0" opacity="0.5"/><line x1="278.1" y1="290.7" x2="281.7" y2="294.9" stroke="#d6dbe3" stroke-width="1.0" opacity="0.5"/><line x1="283.5" y1="296.3" x2="287.1" y2="300.5" stroke="#d6dbe3" stroke-width="1.0" opacity="0.5"/><line x1="314.4" y1="272.0" x2="318.0" y2="276.2" stroke="#d6dbe3" stroke-width="1.0" opacity="0.5"/><line x1="525.0" y1="235.8" x2="528.6" y2="240.0" stroke="#d6dbe3" stroke-width="1.0" opacity="0.5"/><line x1="546.1" y1="227.4" x2="549.7" y2="231.6" stroke="#d6dbe3" stroke-width="1.0" opacity="0.5"/><line x1="554.1" y1="214.2" x2="557.7" y2="218.4" stroke="#d6dbe3" stroke-width="1.0" opacity="0.5"/><line x1="542.4" y1="225.7" x2="546.0" y2="229.9" stroke="#d6dbe3" stroke-width="1.0" opacity="0.5"/><line x1="540.6" y1="200.4" x2="544.2" y2="204.6" stroke="#d6dbe3" stroke-width="1.0" opacity="0.5"/><line x1="523.5" y1="236.2" x2="527.1" y2="240.4" stroke="#d6dbe3" stroke-width="1.0" opacity="0.5"/><line x1="495.8" y1="213.3" x2="499.4" y2="217.5" stroke="#d6dbe3" stroke-width="1.0" opacity="0.5"/><line x1="482.5" y1="235.5" x2="486.1" y2="239.7" stroke="#d6dbe3" stroke-width="1.0" opacity="0.5"/><line x1="447.2" y1="247.5" x2="450.8" y2="251.7" stroke="#d6dbe3" stroke-width="1.0" opacity="0.5"/><line x1="509.8" y1="244.0" x2="513.4" y2="248.2" stroke="#d6dbe3" stroke-width="1.0" opacity="0.5"/><line x1="497.3" y1="237.8" x2="500.9" y2="242.0" stroke="#d6dbe3" stroke-width="1.0" opacity="0.5"/><line x1="488.6" y1="247.2" x2="492.2" y2="251.4" stroke="#d6dbe3" stroke-width="1.0" opacity="0.5"/><line x1="465.2" y1="266.7" x2="468.8" y2="270.9" stroke="#d6dbe3" stroke-width="1.0" opacity="0.5"/><line x1="446.3" y1="258.1" x2="449.9" y2="262.3" stroke="#d6dbe3" stroke-width="1.0" opacity="0.5"/><line x1="421.2" y1="261.3" x2="424.8" y2="265.5" stroke="#d6dbe3" stroke-width="1.0" opacity="0.5"/><line x1="437.3" y1="267.1" x2="440.9" y2="271.3" stroke="#d6dbe3" stroke-width="1.0" opacity="0.5"/><line x1="399.9" y1="266.5" x2="403.5" y2="270.7" stroke="#d6dbe3" stroke-width="1.0" opacity="0.5"/><line x1="431.8" y1="270.4" x2="435.4" y2="274.6" stroke="#d6dbe3" stroke-width="1.0" opacity="0.5"/><line x1="370.4" y1="273.8" x2="374.0" y2="278.0" stroke="#d6dbe3" stroke-width="1.0" opacity="0.5"/><line x1="379.0" y1="282.5" x2="382.6" y2="286.7" stroke="#d6dbe3" stroke-width="1.0" opacity="0.5"/><line x1="434.9" y1="282.6" x2="438.5" y2="286.8" stroke="#d6dbe3" stroke-width="1.0" opacity="0.5"/><line x1="347.1" y1="305.5" x2="350.7" y2="309.7" stroke="#d6dbe3" stroke-width="1.0" opacity="0.5"/><line x1="352.3" y1="311.7" x2="355.9" y2="315.9" stroke="#d6dbe3" stroke-width="1.0" opacity="0.5"/><line x1="347.1" y1="310.3" x2="350.7" y2="314.5" stroke="#d6dbe3" stroke-width="1.0" opacity="0.5"/><line x1="370.8" y1="316.7" x2="374.4" y2="320.9" stroke="#d6dbe3" stroke-width="1.0" opacity="0.5"/><line x1="336.1" y1="309.6" x2="339.7" y2="313.8" stroke="#d6dbe3" stroke-width="1.0" opacity="0.5"/><line x1="347.0" y1="294.9" x2="350.6" y2="299.1" stroke="#d6dbe3" stroke-width="1.0" opacity="0.5"/><line x1="371.9" y1="318.0" x2="375.5" y2="322.2" stroke="#d6dbe3" stroke-width="1.0" opacity="0.5"/><line x1="615.8" y1="235.4" x2="619.4" y2="239.6" stroke="#d6dbe3" stroke-width="1.0" opacity="0.5"/><line x1="582.1" y1="245.9" x2="585.7" y2="250.1" stroke="#d6dbe3" stroke-width="1.0" opacity="0.5"/><line x1="561.4" y1="237.3" x2="565.0" y2="241.5" stroke="#d6dbe3" stroke-width="1.0" opacity="0.5"/><line x1="617.5" y1="238.6" x2="621.1" y2="242.8" stroke="#d6dbe3" stroke-width="1.0" opacity="0.5"/><line x1="597.7" y1="248.2" x2="601.3" y2="252.4" stroke="#d6dbe3" stroke-width="1.0" opacity="0.5"/><line x1="605.7" y1="246.8" x2="609.3" y2="251.0" stroke="#d6dbe3" stroke-width="1.0" opacity="0.5"/><line x1="588.5" y1="256.7" x2="592.1" y2="260.9" stroke="#d6dbe3" stroke-width="1.0" opacity="0.5"/><line x1="528.2" y1="254.0" x2="531.8" y2="258.2" stroke="#d6dbe3" stroke-width="1.0" opacity="0.5"/><line x1="516.2" y1="291.3" x2="519.8" y2="295.5" stroke="#d6dbe3" stroke-width="1.0" opacity="0.5"/><line x1="520.2" y1="269.0" x2="523.8" y2="273.2" stroke="#d6dbe3" stroke-width="1.0" opacity="0.5"/><line x1="543.1" y1="273.9" x2="546.7" y2="278.1" stroke="#d6dbe3" stroke-width="1.0" opacity="0.5"/><line x1="532.5" y1="268.2" x2="536.1" y2="272.4" stroke="#d6dbe3" stroke-width="1.0" opacity="0.5"/><line x1="519.1" y1="275.2" x2="522.7" y2="279.4" stroke="#d6dbe3" stroke-width="1.0" opacity="0.5"/><line x1="526.3" y1="268.3" x2="529.9" y2="272.5" stroke="#d6dbe3" stroke-width="1.0" opacity="0.5"/><line x1="505.8" y1="301.2" x2="509.4" y2="305.4" stroke="#d6dbe3" stroke-width="1.0" opacity="0.5"/><line x1="462.0" y1="313.3" x2="465.6" y2="317.5" stroke="#d6dbe3" stroke-width="1.0" opacity="0.5"/><line x1="474.2" y1="294.8" x2="477.8" y2="299.0" stroke="#d6dbe3" stroke-width="1.0" opacity="0.5"/><line x1="497.1" y1="307.0" x2="500.7" y2="311.2" stroke="#d6dbe3" stroke-width="1.0" opacity="0.5"/><line x1="458.1" y1="296.9" x2="461.7" y2="301.1" stroke="#d6dbe3" stroke-width="1.0" opacity="0.5"/><line x1="498.6" y1="301.2" x2="502.2" y2="305.4" stroke="#d6dbe3" stroke-width="1.0" opacity="0.5"/><line x1="469.4" y1="297.7" x2="473.0" y2="301.9" stroke="#d6dbe3" stroke-width="1.0" opacity="0.5"/><line x1="429.0" y1="342.5" x2="432.6" y2="346.7" stroke="#d6dbe3" stroke-width="1.0" opacity="0.5"/><line x1="442.9" y1="336.6" x2="446.5" y2="340.8" stroke="#d6dbe3" stroke-width="1.0" opacity="0.5"/><line x1="395.0" y1="335.7" x2="398.6" y2="339.9" stroke="#d6dbe3" stroke-width="1.0" opacity="0.5"/><line x1="430.8" y1="344.1" x2="434.4" y2="348.3" stroke="#d6dbe3" stroke-width="1.0" opacity="0.5"/><line x1="415.0" y1="320.3" x2="418.6" y2="324.5" stroke="#d6dbe3" stroke-width="1.0" opacity="0.5"/><line x1="426.3" y1="329.3" x2="429.9" y2="333.5" stroke="#d6dbe3" stroke-width="1.0" opacity="0.5"/><line x1="408.5" y1="351.5" x2="412.1" y2="355.7" stroke="#d6dbe3" stroke-width="1.0" opacity="0.5"/><line x1="645.4" y1="263.1" x2="649.0" y2="267.3" stroke="#d6dbe3" stroke-width="1.0" opacity="0.5"/><line x1="657.9" y1="286.8" x2="661.5" y2="291.0" stroke="#d6dbe3" stroke-width="1.0" opacity="0.5"/><line x1="672.1" y1="279.6" x2="675.7" y2="283.8" stroke="#d6dbe3" stroke-width="1.0" opacity="0.5"/><line x1="642.2" y1="262.1" x2="645.8" y2="266.3" stroke="#d6dbe3" stroke-width="1.0" opacity="0.5"/><line x1="675.1" y1="277.6" x2="678.7" y2="281.8" stroke="#d6dbe3" stroke-width="1.0" opacity="0.5"/><line x1="646.6" y1="270.3" x2="650.2" y2="274.5" stroke="#d6dbe3" stroke-width="1.0" opacity="0.5"/><line x1="650.5" y1="271.9" x2="654.1" y2="276.1" stroke="#d6dbe3" stroke-width="1.0" opacity="0.5"/><line x1="626.7" y1="307.8" x2="630.3" y2="312.0" stroke="#d6dbe3" stroke-width="1.0" opacity="0.5"/><line x1="544.9" y1="304.8" x2="548.5" y2="309.0" stroke="#d6dbe3" stroke-width="1.0" opacity="0.5"/><line x1="584.9" y1="326.8" x2="588.5" y2="331.0" stroke="#d6dbe3" stroke-width="1.0" opacity="0.5"/><line x1="565.2" y1="315.2" x2="568.8" y2="319.4" stroke="#d6dbe3" stroke-width="1.0" opacity="0.5"/><line x1="623.9" y1="309.6" x2="627.5" y2="313.8" stroke="#d6dbe3" stroke-width="1.0" opacity="0.5"/><line x1="585.6" y1="320.0" x2="589.2" y2="324.2" stroke="#d6dbe3" stroke-width="1.0" opacity="0.5"/><line x1="596.9" y1="310.4" x2="600.5" y2="314.6" stroke="#d6dbe3" stroke-width="1.0" opacity="0.5"/><line x1="527.5" y1="327.1" x2="531.1" y2="331.3" stroke="#d6dbe3" stroke-width="1.0" opacity="0.5"/><line x1="537.7" y1="319.1" x2="541.3" y2="323.3" stroke="#d6dbe3" stroke-width="1.0" opacity="0.5"/><line x1="544.5" y1="333.0" x2="548.1" y2="337.2" stroke="#d6dbe3" stroke-width="1.0" opacity="0.5"/><line x1="566.7" y1="332.5" x2="570.3" y2="336.7" stroke="#d6dbe3" stroke-width="1.0" opacity="0.5"/><line x1="540.1" y1="350.3" x2="543.7" y2="354.5" stroke="#d6dbe3" stroke-width="1.0" opacity="0.5"/><line x1="531.3" y1="355.7" x2="534.9" y2="359.9" stroke="#d6dbe3" stroke-width="1.0" opacity="0.5"/><line x1="545.5" y1="347.4" x2="549.1" y2="351.6" stroke="#d6dbe3" stroke-width="1.0" opacity="0.5"/><line x1="434.9" y1="360.2" x2="438.5" y2="364.4" stroke="#d6dbe3" stroke-width="1.0" opacity="0.5"/><line x1="463.9" y1="353.3" x2="467.5" y2="357.5" stroke="#d6dbe3" stroke-width="1.0" opacity="0.5"/><line x1="476.6" y1="370.5" x2="480.2" y2="374.7" stroke="#d6dbe3" stroke-width="1.0" opacity="0.5"/><line x1="444.8" y1="374.5" x2="448.4" y2="378.7" stroke="#d6dbe3" stroke-width="1.0" opacity="0.5"/><line x1="483.0" y1="364.9" x2="486.6" y2="369.1" stroke="#d6dbe3" stroke-width="1.0" opacity="0.5"/><line x1="440.8" y1="368.7" x2="444.4" y2="372.9" stroke="#d6dbe3" stroke-width="1.0" opacity="0.5"/><line x1="455.4" y1="372.2" x2="459.0" y2="376.4" stroke="#d6dbe3" stroke-width="1.0" opacity="0.5"/><polygon points="470.0,156.0 710.0,276.0 710.0,76.0 470.0,-44.0" fill="url(#g1)" stroke="#c4d0db" stroke-width="1.1" stroke-linejoin="round" opacity="0.92"/><line x1="470.0" y1="156.0" x2="470.0" y2="-44.0" stroke="#f6f9fc" stroke-width="2.2" opacity="1"/><line x1="530.0" y1="186.0" x2="530.0" y2="-14.0" stroke="#f6f9fc" stroke-width="2.2" opacity="1"/><line x1="590.0" y1="216.0" x2="590.0" y2="16.0" stroke="#f6f9fc" stroke-width="2.2" opacity="1"/><line x1="650.0" y1="246.0" x2="650.0" y2="46.0" stroke="#f6f9fc" stroke-width="2.2" opacity="1"/><line x1="710.0" y1="276.0" x2="710.0" y2="76.0" stroke="#f6f9fc" stroke-width="2.2" opacity="1"/><line x1="470.0" y1="-44.0" x2="710.0" y2="76.0" stroke="#fbfdff" stroke-width="2.6" opacity="1"/><line x1="470.0" y1="156.0" x2="710.0" y2="276.0" stroke="#dde4ec" stroke-width="2.0" opacity="1"/><line x1="470.0" y1="56.0" x2="710.0" y2="176.0" stroke="#eef4f9" stroke-width="1.4" opacity="0.7"/><polygon points="470.0,156.0 230.0,276.0 230.0,76.0 470.0,-44.0" fill="url(#g2)" stroke="#c4d0db" stroke-width="1.1" stroke-linejoin="round" opacity="0.92"/><line x1="470.0" y1="156.0" x2="470.0" y2="-44.0" stroke="#eef4f9" stroke-width="2.2" opacity="1"/><line x1="410.0" y1="186.0" x2="410.0" y2="-14.0" stroke="#eef4f9" stroke-width="2.2" opacity="1"/><line x1="350.0" y1="216.0" x2="350.0" y2="16.0" stroke="#eef4f9" stroke-width="2.2" opacity="1"/><line x1="290.0" y1="246.0" x2="290.0" y2="46.0" stroke="#eef4f9" stroke-width="2.2" opacity="1"/><line x1="230.0" y1="276.0" x2="230.0" y2="76.0" stroke="#eef4f9" stroke-width="2.2" opacity="1"/><line x1="470.0" y1="-44.0" x2="230.0" y2="76.0" stroke="#fbfdff" stroke-width="2.6" opacity="1"/><line x1="470.0" y1="156.0" x2="230.0" y2="276.0" stroke="#dde4ec" stroke-width="2.0" opacity="1"/><line x1="470.0" y1="56.0" x2="230.0" y2="176.0" stroke="#eef4f9" stroke-width="1.4" opacity="0.7"/><polygon points="470.0,276.0 350.0,336.0 350.0,218.0 470.0,158.0" fill="url(#g3)" stroke="#c9d5df" stroke-width="1.1" stroke-linejoin="round" opacity="0.5"/><line x1="470.0" y1="158.0" x2="350.0" y2="218.0" stroke="#e3ebf2" stroke-width="2.0" opacity="1"/><line x1="470.0" y1="276.0" x2="470.0" y2="158.0" stroke="#eef4f9" stroke-width="1.6" opacity="0.7"/><line x1="410.0" y1="306.0" x2="410.0" y2="188.0" stroke="#eef4f9" stroke-width="1.6" opacity="0.7"/><line x1="350.0" y1="336.0" x2="350.0" y2="218.0" stroke="#eef4f9" stroke-width="1.6" opacity="0.7"/><polygon points="497.0,280.5 441.8,308.1 441.8,338.1 497.0,310.5" fill="#3f4855" stroke="#2a323d" stroke-width="1.3" stroke-linejoin="round" opacity="1.0"/><polygon points="306.8,240.6 441.8,308.1 441.8,338.1 306.8,270.6" fill="#353d49" stroke="#2a323d" stroke-width="1.3" stroke-linejoin="round" opacity="1.0"/><polygon points="362.0,213.0 497.0,280.5 441.8,308.1 306.8,240.6" fill="#caa67c" stroke="#2a323d" stroke-width="1.3" stroke-linejoin="round" opacity="1.0"/><polygon points="381.8,228.9 378.8,230.4 378.8,245.4 381.8,243.9" fill="#bcc4cf" stroke="#2a323d" stroke-width="1.3" stroke-linejoin="round" opacity="1.0"/><polygon points="375.8,228.9 378.8,230.4 378.8,245.4 375.8,243.9" fill="#aab2bf" stroke="#2a323d" stroke-width="1.3" stroke-linejoin="round" opacity="1.0"/><polygon points="378.8,227.4 381.8,228.9 378.8,230.4 375.8,228.9" fill="#cdd4de" stroke="#2a323d" stroke-width="1.3" stroke-linejoin="round" opacity="1.0"/><polygon points="415.4,189.7 411.8,191.5 411.8,229.5 415.4,227.7" fill="#272d36" stroke="#2a323d" stroke-width="1.3" stroke-linejoin="round" opacity="1.0"/><polygon points="380.6,175.9 411.8,191.5 411.8,229.5 380.6,213.9" fill="#22282f" stroke="#2a323d" stroke-width="1.3" stroke-linejoin="round" opacity="1.0"/><polygon points="384.2,174.1 415.4,189.7 411.8,191.5 380.6,175.9" fill="#2c333d" stroke="#2a323d" stroke-width="1.3" stroke-linejoin="round" opacity="1.0"/><polygon points="380.6,175.9 411.8,191.5 411.8,224.5 380.6,208.9" fill="#1d2630" stroke="#10161d" stroke-width="1.0" stroke-linejoin="round" opacity="1.0"/><line x1="384.2" y1="182.7" x2="402.2" y2="191.7" stroke="#7ee0a6" stroke-width="2.0" opacity="0.92"/><line x1="384.2" y1="188.7" x2="398.0" y2="195.6" stroke="#8fd0f5" stroke-width="2.0" opacity="0.92"/><line x1="384.2" y1="194.7" x2="393.8" y2="199.5" stroke="#f5d77e" stroke-width="2.0" opacity="0.92"/><line x1="384.2" y1="200.7" x2="402.2" y2="209.7" stroke="#e89ad6" stroke-width="2.0" opacity="0.92"/><line x1="384.2" y1="206.7" x2="398.0" y2="213.6" stroke="#7ee0a6" stroke-width="2.0" opacity="0.92"/><polygon points="427.4,251.7 424.4,253.2 424.4,268.2 427.4,266.7" fill="#bcc4cf" stroke="#2a323d" stroke-width="1.3" stroke-linejoin="round" opacity="1.0"/><polygon points="421.4,251.7 424.4,253.2 424.4,268.2 421.4,266.7" fill="#aab2bf" stroke="#2a323d" stroke-width="1.3" stroke-linejoin="round" opacity="1.0"/><polygon points="424.4,250.2 427.4,251.7 424.4,253.2 421.4,251.7" fill="#cdd4de" stroke="#2a323d" stroke-width="1.3" stroke-linejoin="round" opacity="1.0"/><polygon points="461.0,212.5 457.4,214.3 457.4,252.3 461.0,250.5" fill="#272d36" stroke="#2a323d" stroke-width="1.3" stroke-linejoin="round" opacity="1.0"/><polygon points="426.2,198.7 457.4,214.3 457.4,252.3 426.2,236.7" fill="#22282f" stroke="#2a323d" stroke-width="1.3" stroke-linejoin="round" opacity="1.0"/><polygon points="429.8,196.9 461.0,212.5 457.4,214.3 426.2,198.7" fill="#2c333d" stroke="#2a323d" stroke-width="1.3" stroke-linejoin="round" opacity="1.0"/><polygon points="426.2,198.7 457.4,214.3 457.4,247.3 426.2,231.7" fill="#1d2630" stroke="#10161d" stroke-width="1.0" stroke-linejoin="round" opacity="1.0"/><line x1="429.8" y1="205.5" x2="447.8" y2="214.5" stroke="#7ee0a6" stroke-width="2.0" opacity="0.92"/><line x1="429.8" y1="211.5" x2="443.6" y2="218.4" stroke="#8fd0f5" stroke-width="2.0" opacity="0.92"/><line x1="429.8" y1="217.5" x2="439.4" y2="222.3" stroke="#f5d77e" stroke-width="2.0" opacity="0.92"/><line x1="429.8" y1="223.5" x2="447.8" y2="232.5" stroke="#e89ad6" stroke-width="2.0" opacity="0.92"/><line x1="429.8" y1="229.5" x2="443.6" y2="236.4" stroke="#7ee0a6" stroke-width="2.0" opacity="0.92"/><polygon points="362.0,246.0 422.0,276.0 415.4,285.9 355.4,255.9" fill="#2f3742" stroke="#222932" stroke-width="1.0" stroke-linejoin="round" opacity="1.0"/><polygon points="450.8,279.4 444.2,282.7 444.2,293.7 450.8,290.4" fill="#f0e3d6" stroke="#2a323d" stroke-width="1.3" stroke-linejoin="round" opacity="1.0"/><polygon points="437.6,279.4 444.2,282.7 444.2,293.7 437.6,290.4" fill="#e6d6c6" stroke="#2a323d" stroke-width="1.3" stroke-linejoin="round" opacity="1.0"/><polygon points="444.2,276.1 450.8,279.4 444.2,282.7 437.6,279.4" fill="#ffffff" stroke="#2a323d" stroke-width="1.3" stroke-linejoin="round" opacity="1.0"/><polygon points="365.6,202.0 362.0,203.8 362.0,223.8 365.6,222.0" fill="#333b45" stroke="#2a323d" stroke-width="1.3" stroke-linejoin="round" opacity="1.0"/><polygon points="358.4,202.0 362.0,203.8 362.0,223.8 358.4,222.0" fill="#2c333c" stroke="#2a323d" stroke-width="1.3" stroke-linejoin="round" opacity="1.0"/><polygon points="362.0,200.2 365.6,202.0 362.0,203.8 358.4,202.0" fill="#3a424e" stroke="#2a323d" stroke-width="1.3" stroke-linejoin="round" opacity="1.0"/><circle cx="362.0" cy="198.0" r="7" fill="#ffe6a8" stroke="#caa04e" stroke-width="1"/><polygon points="378.2,301.9 368.6,306.7 368.6,326.7 378.2,321.9" fill="#343c46" stroke="#2a323d" stroke-width="1.3" stroke-linejoin="round" opacity="1.0"/><polygon points="338.6,291.7 368.6,306.7 368.6,326.7 338.6,311.7" fill="#2d343d" stroke="#2a323d" stroke-width="1.3" stroke-linejoin="round" opacity="1.0"/><polygon points="348.2,286.9 378.2,301.9 368.6,306.7 338.6,291.7" fill="#3c4450" stroke="#2a323d" stroke-width="1.3" stroke-linejoin="round" opacity="1.0"/><polygon points="372.2,260.9 366.8,263.6 366.8,307.6 372.2,304.9" fill="#3c4450" stroke="#2a323d" stroke-width="1.3" stroke-linejoin="round" opacity="1.0"/><polygon points="336.8,248.6 366.8,263.6 366.8,307.6 336.8,292.6" fill="#333a44" stroke="#2a323d" stroke-width="1.3" stroke-linejoin="round" opacity="1.0"/><polygon points="342.2,245.9 372.2,260.9 366.8,263.6 336.8,248.6" fill="#444d5a" stroke="#2a323d" stroke-width="1.3" stroke-linejoin="round" opacity="1.0"/><polygon points="656.6,267.3 635.0,278.1 635.0,290.1 656.6,279.3" fill="#333b45" stroke="#2a323d" stroke-width="1.3" stroke-linejoin="round" opacity="1.0"/><polygon points="613.4,267.3 635.0,278.1 635.0,290.1 613.4,279.3" fill="#2c333c" stroke="#2a323d" stroke-width="1.3" stroke-linejoin="round" opacity="1.0"/><polygon points="635.0,256.5 656.6,267.3 635.0,278.1 613.4,267.3" fill="#3a424e" stroke="#2a323d" stroke-width="1.3" stroke-linejoin="round" opacity="1.0"/><ellipse cx="635.0" cy="255.3" rx="24" ry="22" fill="#6cb583" stroke="#2c3a30" stroke-width="1.1"/><ellipse cx="635.0" cy="241.3" rx="16" ry="15" fill="#7cc191" stroke="#2c3a30" stroke-width="1"/>
</svg>